<svg xmlns="http://www.w3.org/2000/svg" width="28" height="25" viewBox="0 0 28 25"><g><g><path fill="#fff" d="M0 1.016C0 .456.466-.002 1.036-.002h3.746c.466 0 .88.305 1.001.747l4.23 15.048h11.532l3.833-8.663H12.602a1.03 1.03 0 0 1-1.035-1.018c0-.56.466-1.02 1.035-1.02h14.364c.346 0 .674.171.864.46.19.289.224.645.086.967l-4.73 10.7a1.04 1.04 0 0 1-.95.612h-13c-.466 0-.88-.306-1.001-.748L4.005 2.036h-2.97A1.03 1.03 0 0 1 0 1.016zm5.904 21.672c0-1.274 1.053-2.31 2.348-2.31s2.348 1.036 2.348 2.31-1.053 2.31-2.348 2.31-2.348-1.036-2.348-2.31zm14.692.153c-.087-1.257.88-2.378 2.175-2.462 1.295-.086 2.417.882 2.503 2.139.035.629-.155 1.223-.57 1.681a2.35 2.35 0 0 1-1.605.799h-.173a2.337 2.337 0 0 1-2.33-2.157z"/></g></g></svg>