<svg xmlns="http://www.w3.org/2000/svg" width="34" height="24" viewBox="0 0 34 24"><g><g><path fill="#fff" d="M30.85 20.514c0 1.726-1.381 3.131-3.08 3.131a3.13 3.13 0 0 1-2.21-.918 3.091 3.091 0 0 1-.924-2.213c0-.835.331-1.614.925-2.212a3.119 3.119 0 0 1 2.21-.92c1.698 0 3.078 1.407 3.078 3.132zm-1.381 0c0-.96-.76-1.74-1.699-1.74-.953 0-1.754.794-1.754 1.74 0 .947.801 1.74 1.754 1.74.94 0 1.699-.78 1.699-1.74zm1.18-11.675c.145.132.228.32.228.515v3.82c0 .383-.31.696-.69.696h-5.62a.695.695 0 0 1-.69-.696V7.468c0-.382.31-.696.69-.696h3.541c.173 0 .339.063.463.181zm-1.153.82L27.84 8.158h-2.582v4.32h4.24zM13.99 20.515c0 1.726-1.38 3.131-3.079 3.131a3.13 3.13 0 0 1-2.21-.918 3.091 3.091 0 0 1-.924-2.213c0-.835.331-1.614.925-2.212a3.119 3.119 0 0 1 2.209-.92c1.699 0 3.08 1.407 3.08 3.132zm-1.38 0c0-.96-.76-1.74-1.699-1.74-.953 0-1.754.794-1.754 1.74 0 .947.801 1.74 1.754 1.74.939 0 1.699-.78 1.699-1.74zm-5.614-1.58c0 .383-.31.696-.69.696H4.227a.695.695 0 0 1-.69-.695v-2.547c0-.382.31-.696.69-.696.38 0 .69.314.69.696v1.85h1.388c.38 0 .69.314.69.697zm2.12-3.791H.74a.695.695 0 0 1 0-1.392h8.375c.38 0 .69.313.69.696a.69.69 0 0 1-.69.696zm-7.657-3.91c0-.383.311-.69.69-.69h.008l8.374.05c.38 0 .69.312.684.702a.7.7 0 0 1-.697.689l-8.375-.049a.687.687 0 0 1-.684-.703zM2.86 8.08c0-.383.31-.696.69-.696h8.375a.695.695 0 0 1 0 1.391H3.55a.695.695 0 0 1-.69-.695zm31.096.299l-.055 10.548a.69.69 0 0 1-.69.689h-1.402a.695.695 0 0 1 0-1.392h.718l.048-9.525-4.501-3.758h-5.565V18.24h1.388a.695.695 0 0 1 0 1.391h-8.43a.695.695 0 0 1 0-1.391h5.661V1.742H4.918V6.14c0 .382-.311.695-.691.695a.695.695 0 0 1-.69-.695V1.046c0-.383.31-.695.69-.695h17.585c.38 0 .69.312.69.695v2.505h5.814c.165 0 .317.056.441.16l4.944 4.126a.736.736 0 0 1 .255.543z"/></g></g></svg>