<svg xmlns="http://www.w3.org/2000/svg" width="26" height="26" viewBox="0 0 26 26"><g><g><path fill="#fff" d="M5.501 9.505c0-2.275.715-4.423 2.014-6.045 1.34-1.674 3.137-2.596 5.06-2.596 3.9 0 7.074 3.877 7.074 8.64 0 4.763-3.173 8.64-7.074 8.64-3.9 0-7.074-3.877-7.074-8.64zm1.572 0c0 3.897 2.47 7.068 5.502 7.068 3.034 0 5.502-3.17 5.502-7.068 0-3.898-2.468-7.069-5.502-7.069-3.033 0-5.502 3.17-5.502 7.069zM25.15 23.642a2.36 2.36 0 0 1-2.358 2.356H2.358A2.36 2.36 0 0 1 0 23.642c0-3.898 3.173-7.07 7.074-7.07a.786.786 0 1 1 0 1.572 5.507 5.507 0 0 0-5.502 5.498c0 .432.352.784.786.784h20.435a.786.786 0 0 0 .786-.784 5.507 5.507 0 0 0-5.502-5.498.785.785 0 1 1 0-1.571c3.901 0 7.074 3.172 7.074 7.069z"/></g></g></svg>