<svg xmlns="http://www.w3.org/2000/svg" width="25" height="25" viewBox="0 0 25 25"><g><g><path fill="#0bb8ec" d="M24.997 20.148a3.7 3.7 0 0 0-1.134-2.543c-1.364-1.316-2.507-2.075-3.596-2.39-1.502-.434-2.892-.04-4.133 1.173l-.006.006-1.32 1.31c-.825-.465-2.43-1.487-4.163-3.221l-.129-.129c-1.734-1.734-2.755-3.34-3.22-4.164l1.311-1.32.005-.007C9.825 7.622 10.22 6.231 9.785 4.73 9.47 3.639 8.711 2.495 7.396 1.13a3.697 3.697 0 0 0-2.54-1.135 3.698 3.698 0 0 0-2.617.949L2.21.97a.894.894 0 0 0-.038.036C.739 2.44-.012 4.448-.001 6.813c.02 4.016 2.227 8.61 5.903 12.287a23.78 23.78 0 0 0 2.341 2.04.976.976 0 1 0 1.188-1.551 21.896 21.896 0 0 1-2.148-1.87c-3.32-3.322-5.313-7.403-5.33-10.916-.01-1.821.538-3.34 1.583-4.397l.008-.007a1.756 1.756 0 0 1 2.446.088C8.52 5.111 8.335 6.35 7.218 7.495L5.408 9.32a.977.977 0 0 0-.199 1.085c.046.104 1.158 2.561 3.927 5.332l.128.128c2.769 2.77 5.225 3.882 5.329 3.928.368.164.799.085 1.085-.2l1.824-1.81c1.145-1.118 2.383-1.3 5.005 1.229.687.662.726 1.737.088 2.447l-.006.008c-1.048 1.037-2.55 1.584-4.351 1.584h-.045c-1.439-.007-3.105-.402-4.818-1.141a.976.976 0 1 0-.774 1.794c1.98.855 3.859 1.293 5.583 1.301h.054c2.34 0 4.327-.75 5.75-2.174a1.35 1.35 0 0 0 .035-.038l.026-.028a3.7 3.7 0 0 0 .948-2.617z"/></g></g></svg>