<svg xmlns="http://www.w3.org/2000/svg" width="23" height="23" viewBox="0 0 23 23"><g><g opacity=".5"><path fill="#fff" d="M23.015 2.297v18.394c0 1.266-1.036 2.3-2.302 2.3H2.298a2.307 2.307 0 0 1-2.301-2.3V2.297c0-1.264 1.035-2.3 2.301-2.3h18.415a2.308 2.308 0 0 1 2.302 2.3zM6.902 11.494c0 2.53 2.072 4.6 4.604 4.6s4.604-2.07 4.604-4.6c0-2.528-2.072-4.599-4.604-4.599s-4.604 2.07-4.604 4.6zm13.236 9.197c.345 0 .575-.229.575-.574v-9.772h-2.417c.115.344.115.805.115 1.15 0 3.793-3.107 6.897-6.905 6.897S4.6 15.288 4.6 11.494c0-.344 0-.805.115-1.149H2.298v9.772c0 .345.23.574.576.574zm.575-17.819c0-.345-.23-.575-.575-.575h-2.302c-.345 0-.576.23-.576.575v2.3c0 .346.23.575.576.575h2.302c.345 0 .575-.23.575-.575z"/></g></g></svg>