<svg xmlns="http://www.w3.org/2000/svg" width="41" height="34" viewBox="0 0 41 34"><g><g opacity=".15"><path fill="#1b243d" d="M18.9 19.806a9.187 9.187 0 0 1 .842 7.009c-1.107 3.97-4.747 6.742-8.852 6.742h-.04c-3.327-.131-5.913-1.434-7.685-3.875-3.167-4.36-2.79-11.29-1.504-15.899C3.851 5.928 9.041.441 14.282.441c.325 0 .654.023.976.067a1.038 1.038 0 0 1 .858 1.31l-.954 3.424c-.11.394-.442.688-.846.748-4.367.65-6.558 6.431-7.47 9.781a9.076 9.076 0 0 1 3.629-.746c.947 0 1.92.143 2.895.424 2.373.685 4.337 2.233 5.53 4.357zm21.008 7.01c-1.107 3.968-4.747 6.741-8.852 6.741h-.04c-3.328-.13-5.913-1.434-7.685-3.874-3.167-4.361-2.79-11.29-1.505-15.9C24.016 5.928 29.206.441 34.447.441c.326 0 .654.023.977.067a1.038 1.038 0 0 1 .857 1.31l-.954 3.424c-.11.394-.442.688-.846.748-4.366.65-6.558 6.431-7.47 9.781a9.075 9.075 0 0 1 3.63-.746c.947 0 1.92.143 2.894.424 2.374.685 4.338 2.233 5.53 4.357a9.192 9.192 0 0 1 .843 7.01z"/></g></g></svg>