<svg xmlns="http://www.w3.org/2000/svg" width="15" height="22" viewBox="0 0 15 22"><g><g><path fill="#0bb8ec" d="M14.92 8.254c0 5.077-6.64 12.53-6.923 12.845a.668.668 0 0 1-.994 0C6.72 20.784.08 13.33.08 8.254.08 4.163 3.409.834 7.5.834c4.091 0 7.42 3.329 7.42 7.42zm-1.336 0A6.09 6.09 0 0 0 7.5 2.17a6.09 6.09 0 0 0-6.084 6.083c0 3.484 3.85 8.72 6.084 11.375 2.235-2.655 6.084-7.89 6.084-11.375zm-2.351 0A3.737 3.737 0 0 1 7.5 11.987a3.737 3.737 0 0 1-3.733-3.733A3.737 3.737 0 0 1 7.5 4.52a3.737 3.737 0 0 1 3.733 3.733zm-1.336 0A2.4 2.4 0 0 0 7.5 5.857a2.4 2.4 0 0 0-2.397 2.397A2.4 2.4 0 0 0 7.5 10.65a2.4 2.4 0 0 0 2.397-2.397z"/></g></g></svg>