<svg xmlns="http://www.w3.org/2000/svg" width="32" height="18" viewBox="0 0 32 18"><g><g opacity=".5"><path fill="#fff" d="M31.848 16.25a2.164 2.164 0 0 0-.108-.207c-.555-.986-1.616-2.197-3.182-3.63l-.034-.033-.016-.016-.017-.015h-.017c-.71-.669-1.16-1.118-1.35-1.349-.344-.437-.421-.88-.233-1.33.133-.34.634-1.057 1.5-2.151.455-.583.816-1.046 1.083-1.397 1.921-2.518 2.755-4.128 2.499-4.828l-.1-.165c-.066-.097-.238-.188-.516-.27-.278-.082-.633-.096-1.066-.04L25.492.85c-.077-.027-.188-.025-.333.01l-.217.048-.083.04-.066.05a.752.752 0 0 0-.184.173 1.113 1.113 0 0 0-.166.287 26.602 26.602 0 0 1-1.783 3.695c-.411.68-.788 1.268-1.133 1.767-.344.498-.633.864-.866 1.1a6.095 6.095 0 0 1-.634.566c-.188.143-.333.202-.433.18-.1-.021-.194-.043-.283-.064a1.107 1.107 0 0 1-.375-.404 1.786 1.786 0 0 1-.192-.64 6.865 6.865 0 0 1-.058-.665c-.005-.186-.003-.45.008-.79.012-.338.017-.568.017-.689 0-.415.008-.868.025-1.354.017-.488.03-.873.042-1.158.01-.285.016-.586.016-.904 0-.318-.02-.566-.058-.747a2.553 2.553 0 0 0-.174-.526.896.896 0 0 0-.342-.395 1.99 1.99 0 0 0-.558-.22c-.589-.133-1.339-.203-2.25-.215-2.066-.02-3.393.11-3.982.396-.233.12-.444.284-.633.49-.2.243-.228.375-.084.396.667.098 1.139.335 1.417.706l.1.197c.078.143.155.396.233.756.078.361.128.762.15 1.199.055.799.055 1.484 0 2.053a24.02 24.02 0 0 1-.158 1.33c-.05.318-.125.575-.225.773-.1.196-.167.316-.2.36a.302.302 0 0 1-.084.084 1.302 1.302 0 0 1-.45.081c-.155 0-.344-.076-.566-.23a4.056 4.056 0 0 1-.691-.632 8.43 8.43 0 0 1-.809-1.126c-.3-.481-.61-1.05-.932-1.708l-.267-.476a41.26 41.26 0 0 1-.683-1.34 25.518 25.518 0 0 1-.767-1.698 1.074 1.074 0 0 0-.4-.526l-.083-.05a1.144 1.144 0 0 0-.266-.14 1.825 1.825 0 0 0-.384-.107L1.083.817C.617.817.3.92.133 1.129l-.066.098a.524.524 0 0 0-.05.263c0 .122.033.27.1.444A53.558 53.558 0 0 0 2.29 6.402c.783 1.434 1.463 2.59 2.04 3.465a41.318 41.318 0 0 0 1.767 2.48c.6.778.997 1.276 1.191 1.494.195.22.348.384.459.493l.416.394c.267.262.658.578 1.175.944.516.368 1.088.73 1.716 1.085.628.356 1.358.645 2.191.87a7.675 7.675 0 0 0 2.433.272h1.916c.388-.033.683-.154.883-.362l.066-.082c.045-.065.087-.168.125-.303.039-.136.058-.288.058-.452-.011-.47.025-.895.109-1.273.083-.378.177-.663.283-.853.106-.193.225-.355.358-.486.133-.132.228-.21.284-.237.055-.029.1-.046.133-.058.266-.09.58-.004.941.255.361.256.7.573 1.017.953.317.377.697.8 1.141 1.27.445.473.833.825 1.167 1.054l.333.197c.222.13.51.251.866.362.355.108.666.136.933.082l4.265-.066c.422 0 .75-.07.983-.207.234-.136.372-.288.417-.45.045-.164.047-.351.008-.559a2 2 0 0 0-.117-.435z"/></g></g></svg>